<svg width="20" height="20" viewBox="0 0 20 20" fill="none" xmlns="http://www.w3.org/2000/svg">
<path d="M11.072 7.60196L10.8953 7.43555L10.7186 7.60197L7.34828 10.7757L7.17155 10.9422L7.34831 11.1086L7.91012 11.6375L8.08687 11.8039L8.26359 11.6375L11.6339 8.46374L11.8106 8.29731L11.6339 8.1309L11.072 7.60196Z" fill="#9B51DF" stroke="#9B51DF" stroke-width="0.2"/>
<path d="M8.3736 6.13681L8.19686 5.9704L8.02012 6.13681L5.77297 8.25273L5.59624 8.41914L5.77297 8.58555L6.33476 9.11453L6.5115 9.28095L6.68824 9.11453L8.93539 6.99862L9.11212 6.83221L8.93539 6.66579L8.3736 6.13681Z" fill="#9B51DF" stroke="#9B51DF" stroke-width="0.2"/>
<path d="M9.14576 2.94116C12.8142 2.94116 15.7915 5.74342 15.7915 9.19622C15.7915 12.6491 12.8142 15.4513 9.14576 15.4513C5.4773 15.4513 2.5 12.6491 2.5 9.19622C2.5 5.74342 5.4773 2.94116 9.14576 2.94116ZM9.14576 14.0612C12.0016 14.0612 14.3146 11.8842 14.3146 9.19622C14.3146 6.50829 12.0016 4.33118 9.14576 4.33118C6.28993 4.33118 3.97684 6.50829 3.97684 9.19622C3.97684 11.8842 6.28993 14.0612 9.14576 14.0612ZM15.4115 14.1106L17.5 16.0764L16.4557 17.0593L14.3671 15.0935L15.4115 14.1106Z" fill="#333333"/>
</svg>
