<svg width="20" height="20" viewBox="0 0 20 20" fill="none" xmlns="http://www.w3.org/2000/svg">
<path d="M17.9407 7.50989C18.8385 7.50989 19.5691 8.23247 19.5696 9.12219V15.0304C19.5696 15.7246 19.1225 16.3299 18.467 16.5509V18.1476C18.467 18.3401 18.3494 18.5119 18.1702 18.5851C18.1111 18.6091 18.0509 18.6212 17.9885 18.6212C17.8602 18.6212 17.7398 18.5717 17.6497 18.4825L15.7913 16.6427H8.7395C7.84186 16.6426 7.11084 15.9198 7.1106 15.0304V13.6515H8.06665V15.0304C8.0669 15.3956 8.3688 15.6945 8.7395 15.6945H17.9407C18.3122 15.6945 18.6133 15.3957 18.6135 15.0304V9.12219C18.6135 8.75679 18.3125 8.45814 17.9407 8.45813H17.5305V7.50989H17.9407Z" fill="#333333" stroke="#333333" stroke-width="0.14"/>
<path d="M2.59473 12.0477L2.09863 11.9276C1.54772 11.794 1.15039 11.3086 1.15039 10.744V3.01062C1.15041 2.34154 1.70206 1.7862 2.39355 1.78601H14.4395C15.1313 1.78602 15.6836 2.34165 15.6836 3.01062V10.744C15.6836 11.4119 15.1312 11.9679 14.4395 11.9677H4.8418L4.65137 12.1561L2.59473 14.1923V12.0477Z" stroke="#333333" stroke-width="1.3"/>
<path d="M12.6388 8.12036H4.19434V8.97501H12.6388V8.12036Z" fill="#9B51E0"/>
<path d="M12.6388 6.2113H4.19434V7.06595H12.6388V6.2113Z" fill="#9B51E0"/>
<path d="M12.6388 4.30225H4.19434V5.1569H12.6388V4.30225Z" fill="#9B51E0"/>
</svg>
