<svg width="20" height="20" viewBox="0 0 20 20" fill="none" xmlns="http://www.w3.org/2000/svg">
<g clip-path="url(#clip0_6339_72108)">
<path d="M5 17.5L17.5 5L15 2.5L2.5 15L5 17.5Z" stroke="white" stroke-width="1.5" stroke-linecap="round" stroke-linejoin="round"/>
<path d="M12.5 5L15 7.5" stroke="white" stroke-width="1.5" stroke-linecap="round" stroke-linejoin="round"/>
<path d="M7.50065 2.5C7.50065 2.94203 7.67625 3.36595 7.98881 3.67851C8.30137 3.99107 8.72529 4.16667 9.16732 4.16667C8.72529 4.16667 8.30137 4.34226 7.98881 4.65482C7.67625 4.96738 7.50065 5.39131 7.50065 5.83333C7.50065 5.39131 7.32506 4.96738 7.0125 4.65482C6.69993 4.34226 6.27601 4.16667 5.83398 4.16667C6.27601 4.16667 6.69993 3.99107 7.0125 3.67851C7.32506 3.36595 7.50065 2.94203 7.50065 2.5Z" stroke="white" stroke-width="1.5" stroke-linecap="round" stroke-linejoin="round"/>
<path d="M15.8327 10.834C15.8327 11.276 16.0083 11.6999 16.3208 12.0125C16.6334 12.3251 17.0573 12.5007 17.4993 12.5007C17.0573 12.5007 16.6334 12.6762 16.3208 12.9888C16.0083 13.3014 15.8327 13.7253 15.8327 14.1673C15.8327 13.7253 15.6571 13.3014 15.3445 12.9888C15.032 12.6762 14.608 12.5007 14.166 12.5007C14.608 12.5007 15.032 12.3251 15.3445 12.0125C15.6571 11.6999 15.8327 11.276 15.8327 10.834Z" stroke="white" stroke-width="1.5" stroke-linecap="round" stroke-linejoin="round"/>
</g>
<defs>
<clipPath id="clip0_6339_72108">
<rect width="20" height="20" fill="white"/>
</clipPath>
</defs>
</svg>
