<svg width="20" height="20" viewBox="0 0 20 20" fill="none" xmlns="http://www.w3.org/2000/svg">
<path d="M10.0005 17.9985C5.58219 17.9985 2.00049 14.4171 2.00049 9.99934C2.00049 5.58158 5.58219 2.00024 10.0005 2.00024C14.4188 2.00024 18.0005 5.58158 18.0005 9.99934C18.0005 14.4171 14.4188 17.9985 10.0005 17.9985ZM10.0005 16.6362C13.5351 16.6362 16.6363 13.5337 16.6363 9.99934C16.6363 6.46517 13.5351 3.36566 10.0005 3.36566C6.46584 3.36566 3.36428 6.46517 3.36428 9.99934C3.36428 13.5337 6.46584 16.6362 10.0005 16.6362Z" fill="#333333"/>
<path d="M13.2003 11.6034H6.80029V13.2032H13.2003V11.6034Z" fill="#9B51E0"/>
<path d="M5.6001 8.00368C5.6001 8.66631 6.13739 9.20353 6.8001 9.20353C7.46288 9.20353 8.0001 8.66631 8.0001 8.00368C8.0001 7.34105 7.46288 6.80383 6.8001 6.80383C6.13739 6.80383 5.6001 7.34105 5.6001 8.00368Z" fill="#9B51E0"/>
<path d="M12.0005 8.00368C12.0005 8.66631 12.5378 9.20353 13.2005 9.20353C13.8633 9.20353 14.4005 8.66631 14.4005 8.00368C14.4005 7.34105 13.8633 6.80383 13.2005 6.80383C12.5378 6.80383 12.0005 7.34105 12.0005 8.00368Z" fill="#9B51E0"/>
</svg>
